<svg xmlns="http://www.w3.org/2000/svg" width="18.447" height="24" viewBox="0 0 18.447 24"><defs><style>.a{fill:#135da4;}</style></defs><path class="a" d="M73.451,9.692h-.468V7.5A7.461,7.461,0,0,0,65.756,0c-.11,0-.329,0-.439,0a7.461,7.461,0,0,0-7.228,7.5V9.692h-.468a1.519,1.519,0,0,0-1.309,1.662V22.332A1.525,1.525,0,0,0,57.622,24H73.451a1.525,1.525,0,0,0,1.309-1.668V11.354A1.519,1.519,0,0,0,73.451,9.692Zm-6.432,7.14v3.317a.708.708,0,0,1-.7.7h-1.57a.708.708,0,0,1-.7-.7V16.832a2.009,2.009,0,0,1,1.264-3.417c.11,0,.329,0,.439,0a2.009,2.009,0,0,1,1.264,3.417ZM69.9,9.692H61.172V7.5a4.365,4.365,0,1,1,8.73,0V9.692Z" transform="translate(-56.313 0)"/></svg>